<svg width="256" height="256" viewBox="0 0 50 50" xmlns="http://www.w3.org/2000/svg"
  fill-rule="evenodd" clip-rule="evenodd" stroke-linecap="round" stroke-linejoin="round">
  <g transform="rotate(-15,25,25)">
    <circle cx="25" cy="25" r="25" fill="#fff" />
    <g transform="translate(25,28) scale(0.8) translate(-25,-24)">
      <path
        d="M39.49 6.728c2.644 2.72 3.754 6.432 4.22 11.634 1.244 0 2.4.27 3.184 1.308l1.46 1.928c.42.556.646 1.22.646 1.91v5.24a2.16 2.16 0 01-.906 1.736C41.478 35.204 33.314 39 25 39c-9.2 0-18.41-5.166-23.094-8.516A2.17 2.17 0 011 28.748v-5.24c0-.69.226-1.358.642-1.912l1.46-1.926c.784-1.034 1.948-1.308 3.186-1.308l.058-.594c.5-4.892 1.62-8.426 4.164-11.04C15.432 1.648 21.93 1.026 24.802 1h.396c2.872.026 9.37.646 14.292 5.728zM25 11.23c-.48 0-1.05.03-1.68.088.06.32.09.672.12 1.052l-.002.318a5.96 5.96 0 01-.028.5c.45-.044.85-.054 1.224-.056h.732c.374 0 .774.012 1.224.056-.03-.292-.03-.554-.03-.818.03-.38.06-.73.12-1.052A18.476 18.476 0 0025 11.23zm.002 4.154c-.568 0-1.226.032-1.924.1-.246.894-.61 1.7-1.14 2.216-2.1 2.046-4.632 2.36-5.988 2.36-1.276 0-2.612-.26-3.702-.928-1.032.33-2.024.806-2.088 1.992a132.099 132.099 0 00-.126 5.768l-.004.96c-.004 1.126-.01 2.252-.026 3.38.004.652.408 1.26 1.02 1.53 4.964 2.204 9.66 3.314 13.98 3.314 4.312 0 9.008-1.11 13.97-3.314a1.71 1.71 0 001.02-1.532c.06-3.364.012-6.744-.152-10.106-.062-1.192-1.056-1.66-2.092-1.992-1.092.666-2.424.928-3.7.928-1.354 0-3.884-.314-5.986-2.36-.532-.516-.894-1.322-1.14-2.216-.64-.064-1.28-.098-1.92-.1h-.002zm-8.732-9.21c-2.1.204-3.87.876-4.77 1.812-1.95 2.074-1.53 7.336-.42 8.448.81.788 2.34 1.314 3.99 1.314h.18c1.298-.026 3.57-.352 5.46-2.22.87-.82 1.41-2.866 1.35-4.94-.06-1.668-.54-3.04-1.26-3.626-.78-.672-2.55-.964-4.53-.788zm12.93.788c-.72.584-1.2 1.96-1.26 3.626-.06 2.074.48 4.12 1.35 4.94 1.936 1.914 4.272 2.208 5.552 2.22h.088c1.65 0 3.18-.526 3.99-1.314 1.11-1.112 1.53-6.374-.42-8.448-.9-.936-2.67-1.608-4.77-1.812-1.98-.176-3.75.116-4.53.788z"
        fill="#000" />
      <g stroke="#000" stroke-width="1.5" fill="none">
        <!-- left eye ">" -->
        <path d="M16.583 24l4.667 3-4.667 3" stroke-width="2.5" />
        <!-- right eye "+" -->
        <path d="M30.75 24.333v5.334M28.083 27h5.334" stroke-width="2.5" />
      </g>
    </g>
  </g>
</svg>