<svg width="256" height="256" viewBox="0 0 50 50" xmlns="http://www.w3.org/2000/svg" fill-rule="evenodd" clip-rule="evenodd" stroke-linecap="round" stroke-linejoin="round"><g transform="rotate(-15 25 25)"><circle cx="25" cy="25" r="25" fill="#fff"/><path d="M36.592 14.182c2.115 2.176 3.003 5.146 3.376 9.308.995 0 1.92.216 2.547 1.046l1.168 1.542c.336.445.517.976.517 1.528v4.192a1.728 1.728 0 01-.725 1.39C38.182 36.962 31.651 40 25 40c-7.36 0-14.728-4.133-18.475-6.813a1.736 1.736 0 01-.725-1.389v-4.192c0-.552.18-1.086.514-1.53l1.168-1.54c.627-.827 1.558-1.046 2.548-1.046l.047-.476c.4-3.913 1.296-6.74 3.331-8.832 3.938-4.064 9.136-4.561 11.434-4.582h.316c2.298.02 7.496.517 11.434 4.582zM25 17.784c-.384 0-.84.024-1.344.07.048.256.072.538.096.842l-.002.254a4.768 4.768 0 01-.022.4c.36-.035.68-.043.98-.044h.585c.299 0 .619.01.979.044-.024-.233-.024-.443-.024-.654.024-.304.048-.584.096-.842a14.78 14.78 0 00-1.344-.07zm.002 3.323c-.455 0-.981.026-1.54.08-.196.715-.488 1.36-.912 1.773-1.68 1.637-3.705 1.888-4.79 1.888-1.02 0-2.09-.208-2.962-.742-.825.264-1.619.644-1.67 1.593a105.68 105.68 0 00-.1 4.615l-.004.768c-.003.9-.008 1.801-.02 2.704.002.521.326 1.008.815 1.224 3.971 1.763 7.728 2.65 11.184 2.65 3.45 0 7.207-.887 11.176-2.65a1.368 1.368 0 00.816-1.226c.048-2.691.01-5.395-.121-8.085-.05-.953-.845-1.328-1.674-1.593-.874.532-1.94.742-2.96.742-1.083 0-3.107-.251-4.789-1.888-.425-.413-.715-1.058-.912-1.773a15.93 15.93 0 00-1.536-.08h-.001zm-6.986-7.368c-1.68.163-3.096.701-3.816 1.45-1.56 1.659-1.224 5.869-.336 6.758.648.63 1.872 1.051 3.192 1.051h.144c1.038-.02 2.856-.281 4.368-1.776.696-.656 1.128-2.292 1.08-3.952-.048-1.334-.432-2.432-1.008-2.9-.624-.538-2.04-.772-3.624-.63zm10.344.63c-.576.468-.96 1.569-1.008 2.901-.048 1.66.384 3.296 1.08 3.952 1.549 1.532 3.418 1.767 4.442 1.776h.07c1.32 0 2.544-.42 3.192-1.05.888-.89 1.224-5.1-.336-6.76-.72-.748-2.136-1.286-3.816-1.449-1.584-.14-3 .093-3.624.63z"/><g stroke="#000" stroke-width="2.5" fill="none"><path d="M18.266 28L22 30.4l-3.734 2.4M29.6 28.266v4.268M27.466 30.4h4.268" stroke-width="2"/></g></g></svg>