<svg width="24" height="24" viewBox="0 0 50 40" xmlns="http://www.w3.org/2000/svg" fill-rule="evenodd" clip-rule="evenodd" stroke-linecap="round" stroke-linejoin="round"><path d="M34.267 3.6c3.258 1.943 5.29 5.242 7.087 10.146 1.202-.322 2.389-.36 3.414.439l1.91 1.484c.55.429.94 1.012 1.118 1.678l1.356 5.062a2.16 2.16 0 01-.426 1.911c-5.168 6.271-12.072 12.051-20.103 14.203-8.886 2.381-19.12-.225-24.51-2.249a2.17 2.17 0 01-1.325-1.442L1.432 29.77a3.18 3.18 0 01.125-2.013l.912-2.238c.49-1.201 1.543-1.767 2.739-2.088l-.098-.589c-.783-4.854-.616-8.558 1.165-11.741 3.44-6.18 9.555-8.464 12.322-9.232l.383-.102c2.78-.719 9.218-1.802 15.287 1.833zm-12.83 8.1c-.465.123-1.007.3-1.6.519.14.294.26.626.387.985l.08.308a5.96 5.96 0 01.103.49c.423-.159.807-.272 1.168-.37l.707-.19c.361-.097.75-.19 1.197-.263-.105-.274-.173-.527-.241-.782-.07-.375-.131-.721-.156-1.048a18.476 18.476 0 00-1.646.35zm1.076 4.011c-.549.147-1.176.348-1.832.595-.007.927-.15 1.8-.528 2.435-1.499 2.52-3.863 3.479-5.173 3.83-1.233.33-2.59.425-3.816.061-.912.586-1.747 1.303-1.502 2.465a132.099 132.099 0 001.372 5.604l.244.928c.288 1.089.573 2.178.85 3.272.173.629.72 1.111 1.381 1.214 5.365.844 10.189.7 14.362-.417 4.165-1.116 8.413-3.404 12.636-6.817a1.71 1.71 0 00.589-1.744 152.054 152.054 0 00-2.763-9.722c-.368-1.136-1.45-1.33-2.536-1.383-.883.926-2.101 1.524-3.334 1.854-1.308.35-3.833.702-6.393-.73-.647-.361-1.205-1.046-1.674-1.846-.635.104-1.262.237-1.88.4l-.003.001zM11.695 9.075c-1.976.74-3.511 1.848-4.139 2.985-1.346 2.508.421 7.482 1.781 8.269.987.551 2.6.663 4.194.236l.174-.046c1.247-.361 3.358-1.264 4.7-3.558.628-1.017.62-3.133.025-5.121-.49-1.596-1.308-2.797-2.155-3.176-.928-.448-2.713-.271-4.58.411zM24.388 6.49c-.544.75-.652 2.203-.278 3.828.479 2.019 1.53 3.856 2.582 4.422 2.366 1.348 4.698 1.028 5.938.708l.085-.023c1.593-.427 2.935-1.331 3.514-2.302.784-1.361-.172-6.553-2.593-8.051-1.111-.671-2.995-.862-5.076-.516-1.958.342-3.592 1.083-4.172 1.934z" fill="#d7dae0"/><g stroke="#d7dae0" fill="none" stroke-width="2.5"><path d="M16.611 26.213l5.284 1.69-3.731 4.105M30.381 22.868l1.381 5.152m-3.266-1.886l5.152-1.38"/></g></svg>